<svg width="199" height="278" viewBox="0 0 199 278" fill="none" xmlns="http://www.w3.org/2000/svg">
<path fill-rule="evenodd" clip-rule="evenodd" d="M99.11 195.62C110.69 195.62 121.81 193.66 132.15 190.05V245.41C132.15 263.09 146.94 277.42 165.19 277.42C183.44 277.42 198.23 263.09 198.23 245.41V96.03H198.21C198.03 85.99 196.31 76.31 193.28 67.22C186.01 74.04 176.1 78.24 165.19 78.24C142.89 78.24 124.81 60.72 124.81 39.12C124.81 26.79 130.69 15.8 139.89 8.63C127.44 3.09 113.64 0 99.11 0C44.97 0 0.98 42.83 0.02 96.03H0V245.41C0 263.09 14.79 277.42 33.04 277.42C51.29 277.42 66.08 263.09 66.08 245.41V190.05C76.41 193.65 87.53 195.62 99.12 195.62H99.11ZM99.11 138.71C121.41 138.71 139.49 121.19 139.49 99.59C139.49 77.99 121.41 60.47 99.11 60.47C76.81 60.47 58.73 77.99 58.73 99.59C58.73 121.19 76.81 138.71 99.11 138.71ZM165.18 64.02C179.37 64.02 190.87 52.87 190.87 39.12C190.87 25.37 179.37 14.22 165.18 14.22C150.99 14.22 139.48 25.37 139.48 39.12C139.48 52.87 150.98 64.02 165.18 64.02Z" fill="url(#paint0_linear_12_5)"/>
<defs>
<linearGradient id="paint0_linear_12_5" x1="0" y1="0" x2="198" y2="277" gradientUnits="userSpaceOnUse">
<stop offset="0.02" stop-color="#86CFF3"/>
<stop offset="0.25" stop-color="#6BABDE"/>
<stop offset="0.47" stop-color="#487FC1"/>
<stop offset="0.7" stop-color="#224B87"/>
<stop offset="0.85" stop-color="#163463"/>
<stop offset="1" stop-color="#0D2957"/>
</linearGradient>
</defs>
</svg>
