<svg width="903" height="363" viewBox="0 0 903 363" fill="none" xmlns="http://www.w3.org/2000/svg">
<g clip-path="url(#clip0_767_2)">
<path fill-rule="evenodd" clip-rule="evenodd" d="M99.11 195.62C110.69 195.62 121.81 193.66 132.15 190.05V245.41C132.15 263.09 146.94 277.42 165.19 277.42C183.44 277.42 198.23 263.09 198.23 245.41V96.03H198.21C198.03 85.99 196.31 76.31 193.28 67.22C186.01 74.04 176.1 78.24 165.19 78.24C142.89 78.24 124.81 60.72 124.81 39.12C124.81 26.79 130.69 15.8 139.89 8.63C127.44 3.09 113.64 0 99.11 0C44.97 0 0.98 42.83 0.02 96.03H0V245.41C0 263.09 14.79 277.42 33.04 277.42C51.29 277.42 66.08 263.09 66.08 245.41V190.05C76.41 193.65 87.53 195.62 99.12 195.62H99.11ZM99.11 138.71C121.41 138.71 139.49 121.19 139.49 99.59C139.49 77.99 121.41 60.47 99.11 60.47C76.81 60.47 58.73 77.99 58.73 99.59C58.73 121.19 76.81 138.71 99.11 138.71ZM165.18 64.02C179.37 64.02 190.87 52.87 190.87 39.12C190.87 25.37 179.37 14.22 165.18 14.22C150.99 14.22 139.48 25.37 139.48 39.12C139.48 52.87 150.98 64.02 165.18 64.02ZM690.09 183.17C690.09 237.19 645.72 280.98 590.98 280.98C579.4 280.98 568.28 279.02 557.94 275.41V330.77C557.94 348.45 543.15 362.78 524.9 362.78C506.65 362.78 491.86 348.45 491.86 330.77V181.39H491.88C492.84 128.19 536.84 85.36 590.97 85.36C645.1 85.36 690.08 129.15 690.08 183.17H690.09ZM590.98 224.07C613.28 224.07 631.36 206.55 631.36 184.95C631.36 163.35 613.28 145.83 590.98 145.83C568.68 145.83 550.6 163.35 550.6 184.95C550.6 206.55 568.68 224.07 590.98 224.07ZM803.88 280.98C858.61 280.98 902.99 237.19 902.99 183.17C902.99 129.15 858.61 85.36 803.88 85.36C749.15 85.36 705.74 128.19 704.78 181.39H704.77V330.77C704.77 348.45 719.56 362.78 737.8 362.78C756.04 362.78 770.84 348.45 770.84 330.77V275.41C781.17 279.01 792.29 280.98 803.88 280.98ZM844.26 184.95C844.26 206.56 826.18 224.07 803.88 224.07C781.58 224.07 763.5 206.55 763.5 184.95C763.5 163.35 781.58 145.83 803.88 145.83C826.18 145.83 844.26 163.35 844.26 184.95ZM264.29 252.53C264.29 266.28 252.79 277.43 238.59 277.43C224.39 277.43 212.89 266.28 212.89 252.53C212.89 238.78 224.39 227.63 238.59 227.63C252.79 227.63 264.29 238.78 264.29 252.53ZM411.12 190.06C400.79 193.66 389.67 195.63 378.08 195.63C366.49 195.63 355.38 193.67 345.04 190.06V245.42C345.04 263.1 330.25 277.43 312 277.43C293.75 277.43 278.96 263.1 278.96 245.42V96.03H278.98C279.95 42.83 323.95 0 378.09 0C432.23 0 476.22 42.83 477.18 96.03H477.2V245.41C477.2 263.09 462.41 277.42 444.16 277.42C425.91 277.42 411.12 263.09 411.12 245.41V190.05V190.06ZM418.46 99.59C418.46 121.2 400.38 138.71 378.08 138.71C355.78 138.71 337.7 121.19 337.7 99.59C337.7 77.99 355.78 60.47 378.08 60.47C400.38 60.47 418.46 77.99 418.46 99.59Z" fill="white"/>
</g>
<defs>
<clipPath id="clip0_767_2">
<rect width="903" height="362.78" fill="white"/>
</clipPath>
</defs>
</svg>
